<?xml version="1.0" encoding="utf-8"?>
<!-- Generator: Adobe Illustrator 26.0.2, SVG Export Plug-In . SVG Version: 6.00 Build 0)  -->
<svg version="1.1" id="图层_1" xmlns="http://www.w3.org/2000/svg" xmlns:xlink="http://www.w3.org/1999/xlink" x="0px" y="0px"
	 viewBox="0 0 841.89 595.28" style="enable-background:new 0 0 841.89 595.28;" xml:space="preserve">
<path d="M165.01,233.02H124.6c-2.06,0-3.73,1.67-3.73,3.73v52.01c0,3.36-1.96,6.42-5.01,7.83l-11.84,5.45
	c-2.47,1.14-5.29-0.67-5.29-3.39v-61.91c0-2.06-1.67-3.73-3.73-3.73H54.59c-2.06,0-3.73,1.67-3.73,3.73v121.78
	c0,2.06,1.67,3.73,3.73,3.73H95c2.06,0,3.73-1.67,3.73-3.73v-28.37c0-3.37,1.96-6.42,5.02-7.83l11.84-5.45
	c2.47-1.14,5.28,0.67,5.28,3.39v38.26c0,2.06,1.67,3.73,3.73,3.73h40.41c2.06,0,3.73-1.67,3.73-3.73v-24.88
	c0-1.91-1.03-3.66-2.69-4.6l-22.37-12.58c-5.1-2.87-4.8-10.31,0.52-12.75l14.8-6.81c5.94-2.73,9.74-8.67,9.74-15.21v-44.96
	C168.73,234.69,167.07,233.02,165.01,233.02z"/>
<path d="M120.87,308.43"/>
<path d="M283.98,270.34v-32.65c0-2.58-2.09-4.67-4.67-4.67H230.3h-11.28l-18.25,0c-2.56,0-5.03,1.03-6.84,2.84
	c-3.1,3.11-5.56,5.58-8.67,8.69c-1.81,1.81-2.83,4.26-2.83,6.82c0,16.12,0,76.4,0,92.54c0,2.56,1.02,5.02,2.84,6.83
	c3.1,3.11,5.57,5.57,8.67,8.68c1.81,1.82,4.28,2.84,6.85,2.84l18.23,0h11.28h49.01c2.58,0,4.67-2.09,4.67-4.67v-32.75
	c0-2.87-3.05-4.72-5.59-3.39l-42.49,22.84c-2.54,1.33-5.59-0.51-5.59-3.39v-86.53c0-2.87,3.05-4.72,5.59-3.39l42.49,22.74
	C280.93,275.06,283.98,273.21,283.98,270.34z"/>
<path d="M391.48,359.24l20.77-17.25c2.74-2.27,4.32-5.65,4.32-9.2v-95.99c0-2.08-1.69-3.77-3.77-3.77h-23.75H368.7h-22.14h-13.54
	h-1.14c-2.79,0-5.49,0.97-7.64,2.75l-21.21,17.59c-2.74,2.27-4.33,5.65-4.33,9.21v95.91c0,2.08,1.69,3.77,3.77,3.77h29.38h14.72
	c7.38,0,14.76,0,22.14,0c6.44,0,9.98-0.18,15.31-0.26C386.75,361.96,389.38,360.99,391.48,359.24z M346.56,344.12V259.7
	c0-1.76,0.7-3.45,1.94-4.7l5.68-5.68c1.25-1.25,2.93-1.94,4.7-1.94h6.05c2.08,0,3.77,1.69,3.77,3.77v84.45
	c0,1.77-0.71,3.46-1.96,4.71c-2.02,2.02-3.65,3.62-5.67,5.64c-1.24,1.24-2.93,1.94-4.69,1.94h-6.05
	C348.25,347.9,346.56,346.21,346.56,344.12z"/>
<path d="M525.69,303.72l14.8-6.81c5.94-2.73,9.74-8.67,9.74-15.21v-24.56c0-3.19-1.27-6.25-3.52-8.5l-12.1-12.1
	c-2.25-2.25-5.31-3.52-8.5-3.52h-2.5h-17.51h-29.6h-13.68h-26.73c-2.06,0-3.73,1.67-3.73,3.73v121.78c0,2.06,1.67,3.73,3.73,3.73
	h40.41c2.06,0,3.73-1.67,3.73-3.73v-28.37c0-3.37,1.96-6.42,5.02-7.83l11.84-5.45c2.47-1.14,5.28,0.67,5.28,3.39v38.26
	c0,2.06,1.67,3.73,3.73,3.73h40.41c2.06,0,3.73-1.67,3.73-3.73v-24.88c0-1.91-1.03-3.66-2.69-4.6l-22.37-12.58
	C520.07,313.61,520.37,306.16,525.69,303.72z M497.35,296.58l-11.84,5.45c-2.47,1.14-5.29-0.67-5.29-3.39v-46.28
	c0-2.62,2.63-4.43,5.08-3.49l11.42,4.38c3.4,1.31,5.64,4.57,5.64,8.21v27.28C502.36,292.12,500.41,295.18,497.35,296.58z"/>
<path d="M618.27,249.3l50.93,22.74c2.54,1.33,5.59-0.51,5.59-3.39v-30.96c0-2.58-2.09-4.67-4.67-4.67h-57.46h-11.28l-18.25,0
	c-2.56,0-5.03,1.02-6.84,2.84c-3.11,3.11-5.57,5.58-8.67,8.7c-1.8,1.81-2.82,4.25-2.82,6.8c0,16.11,0,76.42,0,92.55
	c0,2.56,1.02,5.02,2.84,6.83c3.1,3.1,5.56,5.57,8.66,8.67c1.82,1.82,4.3,2.85,6.88,2.85l18.21,0h11.28h57.46
	c2.58,0,4.67-2.09,4.67-4.67v-31.06c0-2.87-3.05-4.72-5.59-3.39l-50.93,22.84c-2.54,1.33-5.59-0.51-5.59-3.39v-35.65
	c0-2.25,2.28-3.79,4.37-2.94l27.78,11.27c2.22,0.9,4.66-0.73,4.66-3.14v-29.71c0-2.36-2.36-4-4.57-3.17l-27.94,10.46
	c-2.08,0.78-4.29-0.76-4.29-2.97v-34.06C612.67,249.81,615.72,247.97,618.27,249.3z"/>
<path d="M784.53,314.2l-67.27-57.02c-2.33-1.98-5.01-3.51-7.92-4.45c-1.18-0.38-2.49-0.76-3.93-1.13l-8.47-2.29
	c-3.96-0.82-7.7,1.07-7.7,5.97v6.24c0,5.35,1.8,12.24,5.1,16.45l47.87,59.37c2.37,3.02-0.88,7.19-4.39,5.64l-43.41-19.2
	c-2.43-1.08-5.17,0.71-5.17,3.37v31.43c0,2.03,1.65,3.68,3.68,3.68l53.62,0l0,0h5.03h12.93h0h0.21c2.61,0,5.11-1.04,6.95-2.88
	l16.48-18.17c1.84-1.84,2.88-4.34,2.88-6.95v-5.68C791.03,323.07,788.66,317.83,784.53,314.2z"/>
<path d="M724.63,233.02l57.53,0c2.1,0,3.8,2.03,3.8,4.53v35.75c0,3.13-2.6,5.32-5.08,4.27l-57.53-32.38
	C716.08,241.28,719.25,233.02,724.63,233.02z"/>
<path d="M661.12,204.83"/>
</svg>
